<svg xmlns="http://www.w3.org/2000/svg" viewBox="0 0 128 128">
  <rect width="128" height="128" fill="#17181B"/>
  <g transform="translate(20.06 105.2) scale(0.9178)" fill="#FFFFFF">
    <path d="M 103.390625 -8.578125 L 91.984375 2.140625 L 82.328125 -7.90625 C 78.484375 -5.050781 74.210938 -2.816406 69.515625 -1.203125 C 64.828125 0.398438 59.847656 1.203125 54.578125 1.203125 C 48.046875 1.203125 41.941406 0 36.265625 -2.40625 C 30.585938 -4.820312 25.601562 -8.21875 21.3125 -12.59375 C 17.03125 -16.976562 13.660156 -22.117188 11.203125 -28.015625 C 8.742188 -33.921875 7.515625 -40.316406 7.515625 -47.203125 C 7.515625 -53.722656 8.648438 -59.863281 10.921875 -65.625 C 13.203125 -71.394531 16.441406 -76.492188 20.640625 -80.921875 C 24.847656 -85.347656 29.832031 -88.832031 35.59375 -91.375 C 41.363281 -93.925781 47.691406 -95.203125 54.578125 -95.203125 C 61.460938 -95.203125 67.785156 -93.925781 73.546875 -91.375 C 79.316406 -88.832031 84.300781 -85.347656 88.5 -80.921875 C 92.695312 -76.492188 95.957031 -71.394531 98.28125 -65.625 C 100.613281 -59.863281 101.78125 -53.722656 101.78125 -47.203125 C 101.78125 -42.191406 101.039062 -37.226562 99.5625 -32.3125 C 98.09375 -27.394531 96.015625 -23.015625 93.328125 -19.171875 Z M 85.953125 -47.203125 C 85.953125 -53.015625 84.539062 -58.351562 81.71875 -63.21875 C 78.90625 -68.09375 75.128906 -72.023438 70.390625 -75.015625 C 65.660156 -78.015625 60.390625 -79.515625 54.578125 -79.515625 C 49.835938 -79.515625 45.320312 -78.488281 41.03125 -76.4375 L 82.203125 -30.96875 C 83.453125 -33.207031 84.390625 -35.78125 85.015625 -38.6875 C 85.640625 -41.59375 85.953125 -44.429688 85.953125 -47.203125 Z M 54.578125 -14.484375 C 57.703125 -14.484375 60.691406 -14.925781 63.546875 -15.8125 C 66.410156 -16.707031 69.050781 -17.914062 71.46875 -19.4375 L 28.96875 -66.25 C 27.175781 -63.738281 25.765625 -60.785156 24.734375 -57.390625 C 23.710938 -53.992188 23.203125 -50.597656 23.203125 -47.203125 C 23.203125 -40.765625 24.609375 -35.085938 27.421875 -30.171875 C 30.234375 -25.253906 34.03125 -21.410156 38.8125 -18.640625 C 43.601562 -15.867188 48.859375 -14.484375 54.578125 -14.484375 Z M 54.578125 -14.484375 "/>
  </g>
</svg>
